<svg width="685.1675292968749px" height="143.844921875px" xmlns="http://www.w3.org/2000/svg" viewBox="-92.58376464843747 3.0775390624999943 685.1675292968749 143.844921875" style="background: none;" preserveAspectRatio="xMidYMid"><defs><linearGradient id="editing-outline-gradient" x1="-0.41354545764260087" x2="1.4135454576426008" y1="0.09326335692419985" y2="0.9067366430758002"><stop offset="0" stop-color="#ffffff"></stop><stop offset="1" stop-color="#138e94"></stop></linearGradient><filter id="editing-outline" x="-100%" y="-100%" width="300%" height="300%"><feMorphology in="SourceGraphic" operator="dilate" radius="7" result="outline"></feMorphology><feComposite operator="out" in="outline" in2="SourceAlpha"></feComposite></filter></defs><g filter="url(#editing-outline)"><g transform="translate(3.9750046730041504, 109.79000091552734)"><path d="M46.11-29.40L46.11-20.32L17.65-20.32L17.65-29.40L46.11-29.40ZM50.16-9.01L50.16 0L17.65 0L17.65 0Q15.77 0 13.56-0.66L13.56-0.66L13.56-0.66Q11.34-1.32 9.45-2.83L9.45-2.83L9.45-2.83Q7.56-4.33 6.29-6.74L6.29-6.74L6.29-6.74Q5.03-9.15 5.03-12.65L5.03-12.65L5.03-45.17L5.03-45.17Q5.03-46.11 5.37-46.94L5.37-46.94L5.37-46.94Q5.72-47.77 6.33-48.40L6.33-48.40L6.33-48.40Q6.93-49.02 7.77-49.37L7.77-49.37L7.77-49.37Q8.60-49.71 9.57-49.71L9.57-49.71L50.16-49.71L50.16-40.70L14.04-40.70L14.04-12.65L14.04-12.65Q14.04-10.89 14.98-9.95L14.98-9.95L14.98-9.95Q15.91-9.01 17.72-9.01L17.72-9.01L50.16-9.01ZM96.34-25.06L96.34-12.41L96.34-12.41Q96.34-10.54 95.68-8.37L95.68-8.37L95.68-8.37Q95.02-6.21 93.55-4.35L93.55-4.35L93.55-4.35Q92.08-2.50 89.70-1.25L89.70-1.25L89.70-1.25Q87.33 0 83.93 0L83.93 0L67.67 0L67.67 0Q65.80 0 63.63-0.66L63.63-0.66L63.63-0.66Q61.47-1.32 59.61-2.79L59.61-2.79L59.61-2.79Q57.76-4.26 56.51-6.64L56.51-6.64L56.51-6.64Q55.26-9.01 55.26-12.41L55.26-12.41L55.26-12.41Q55.26-14.28 55.92-16.47L55.92-16.47L55.92-16.47Q56.58-18.65 58.05-20.51L58.05-20.51L58.05-20.51Q59.52-22.36 61.90-23.61L61.90-23.61L61.90-23.61Q64.27-24.86 67.67-24.86L67.67-24.86L83.93-24.86L83.93-16.26L67.67-16.26L67.67-16.26Q65.83-16.26 64.83-15.13L64.83-15.13L64.83-15.13Q63.82-14.01 63.82-12.34L63.82-12.34L63.82-12.34Q63.82-10.57 64.99-9.59L64.99-9.59L64.99-9.59Q66.15-8.60 67.74-8.60L67.74-8.60L83.93-8.60L83.93-8.60Q85.77-8.60 86.77-9.71L86.77-9.71L86.77-9.71Q87.78-10.82 87.78-12.48L87.78-12.48L87.78-25.06L87.78-25.06Q87.78-26.83 86.69-27.87L86.69-27.87L86.69-27.87Q85.60-28.91 83.93-28.91L83.93-28.91L64.14-28.91L64.14-37.48L83.93-37.48L83.93-37.48Q85.80-37.48 87.97-36.82L87.97-36.82L87.97-36.82Q90.14-36.16 91.99-34.69L91.99-34.69L91.99-34.69Q93.85-33.21 95.09-30.84L95.09-30.84L95.09-30.84Q96.34-28.46 96.34-25.06L96.34-25.06ZM140.27-12.65L140.27-12.65L140.27-12.65Q140.27-10.33 139.68-8.48L139.68-8.48L139.68-8.48Q139.09-6.62 138.12-5.22L138.12-5.22L138.12-5.22Q137.15-3.81 135.86-2.83L135.86-2.83L135.86-2.83Q134.58-1.84 133.18-1.21L133.18-1.21L133.18-1.21Q131.77-0.59 130.33-0.29L130.33-0.29L130.33-0.29Q128.90 0 127.61 0L127.61 0L103.21 0L103.21-9.01L127.54-9.01L127.54-9.01Q129.38-9.01 130.32-9.95L130.32-9.95L130.32-9.95Q131.25-10.89 131.25-12.65L131.25-12.65L131.25-12.65Q131.08-16.26 127.61-16.26L127.61-16.26L113.64-16.26L113.64-16.26Q110.66-16.26 108.58-17.30L108.58-17.30L108.58-17.30Q106.50-18.34 105.20-19.90L105.20-19.90L105.20-19.90Q103.90-21.46 103.33-23.26L103.33-23.26L103.33-23.26Q102.76-25.06 102.76-26.63L102.76-26.63L102.76-26.63Q102.76-29.64 103.83-31.70L103.83-31.70L103.83-31.70Q104.91-33.77 106.53-35.05L106.53-35.05L106.53-35.05Q108.16-36.33 110.07-36.90L110.07-36.90L110.07-36.90Q111.98-37.48 113.64-37.48L113.64-37.48L135.79-37.48L135.79-28.46L113.71-28.46L113.71-28.46Q113.02-28.46 112.62-28.31L112.62-28.31L112.62-28.31Q112.22-28.15 112.03-27.89L112.03-27.89L112.03-27.89Q111.84-27.63 111.80-27.34L111.80-27.34L111.80-27.34Q111.77-27.04 111.77-26.76L111.77-26.76L111.77-26.76Q111.80-26.21 111.98-25.90L111.98-25.90L111.98-25.90Q112.15-25.58 112.41-25.45L112.41-25.45L112.41-25.45Q112.67-25.31 113.00-25.29L113.00-25.29L113.00-25.29Q113.33-25.27 113.64-25.27L113.64-25.27L127.61-25.27L127.61-25.27Q131.08-25.27 133.51-24.02L133.51-24.02L133.51-24.02Q135.93-22.78 137.42-20.89L137.42-20.89L137.42-20.89Q138.91-19.00 139.59-16.78L139.59-16.78L139.59-16.78Q140.27-14.56 140.27-12.65ZM187.90-37.48L187.90 3.61L187.90 3.61Q187.90 5.93 187.31 7.78L187.31 7.78L187.31 7.78Q186.72 9.64 185.75 11.04L185.75 11.04L185.75 11.04Q184.78 12.45 183.50 13.43L183.50 13.43L183.50 13.43Q182.21 14.42 180.81 15.05L180.81 15.05L180.81 15.05Q179.41 15.67 177.99 15.96L177.99 15.96L177.99 15.96Q176.56 16.26 175.28 16.26L175.28 16.26L159.02 16.26L159.02 7.25L175.28 7.25L175.28 7.25Q177.08 7.25 177.99 6.31L177.99 6.31L177.99 6.31Q178.89 5.37 178.89 3.61L178.89 3.61L178.89-37.48L187.90-37.48ZM175.28-9.01L175.28 0L159.02 0L159.02 0Q157.08 0 154.88-0.66L154.88-0.66L154.88-0.66Q152.68-1.32 150.77-2.83L150.77-2.83L150.77-2.83Q148.86-4.33 147.62-6.74L147.62-6.74L147.62-6.74Q146.37-9.15 146.37-12.65L146.37-12.65L146.37-37.48L155.38-37.48L155.38-12.65L155.38-12.65Q155.38-10.89 156.32-9.95L156.32-9.95L156.32-9.95Q157.25-9.01 159.09-9.01L159.09-9.01L175.28-9.01ZM261.71-29.40L261.71-20.32L233.21-20.32L233.21-29.40L261.71-29.40ZM265.73-49.71L265.73-40.70L229.61-40.70L229.61 0L220.59 0L220.59-45.17L220.59-45.17Q220.59-46.11 220.94-46.94L220.94-46.94L220.94-46.94Q221.29-47.77 221.89-48.40L221.89-48.40L221.89-48.40Q222.50-49.02 223.33-49.37L223.33-49.37L223.33-49.37Q224.16-49.71 225.13-49.71L225.13-49.71L265.73-49.71ZM288.47-9.01L288.47 0L284.45 0L284.45 0Q282.51 0 280.31-0.66L280.31-0.66L280.31-0.66Q278.11-1.32 276.20-2.83L276.20-2.83L276.20-2.83Q274.29-4.33 273.04-6.74L273.04-6.74L273.04-6.74Q271.80-9.15 271.80-12.65L271.80-12.65L271.80-53.32L280.81-53.32L280.81-12.65L280.81-12.65Q280.81-10.99 281.85-10.00L281.85-10.00L281.85-10.00Q282.89-9.01 284.45-9.01L284.45-9.01L288.47-9.01ZM303.41-53.32L303.41-45.17L294.40-45.17L294.40-53.32L303.41-53.32ZM303.41-37.48L303.41 0L294.40 0L294.40-37.48L303.41-37.48ZM352.82-24.86L352.82 3.61L352.82 3.61Q352.82 5.93 352.23 7.78L352.23 7.78L352.23 7.78Q351.64 9.64 350.67 11.04L350.67 11.04L350.67 11.04Q349.70 12.45 348.41 13.43L348.41 13.43L348.41 13.43Q347.13 14.42 345.73 15.05L345.73 15.05L345.73 15.05Q344.32 15.67 342.88 15.96L342.88 15.96L342.88 15.96Q341.44 16.26 340.16 16.26L340.16 16.26L323.90 16.26L323.90 7.25L340.16 7.25L340.16 7.25Q342.00 7.25 342.90 6.31L342.90 6.31L342.90 6.31Q343.80 5.37 343.80 3.61L343.80 3.61L343.80-24.86L343.80-24.86Q343.80-26.63 342.90-27.54L342.90-27.54L342.90-27.54Q342.00-28.46 340.16-28.46L340.16-28.46L323.90-28.46L323.90-28.46Q322.24-28.46 321.27-27.44L321.27-27.44L321.27-27.44Q320.30-26.42 320.30-24.86L320.30-24.86L320.30-12.65L320.30-12.65Q320.30-10.89 321.23-9.95L321.23-9.95L321.23-9.95Q322.17-9.01 323.97-9.01L323.97-9.01L340.16-9.01L340.16 0L323.90 0L323.90 0Q322.62 0 321.20-0.29L321.20-0.29L321.20-0.29Q319.78-0.59 318.37-1.21L318.37-1.21L318.37-1.21Q316.97-1.84 315.69-2.83L315.69-2.83L315.69-2.83Q314.40-3.81 313.43-5.22L313.43-5.22L313.43-5.22Q312.46-6.62 311.87-8.48L311.87-8.48L311.87-8.48Q311.28-10.33 311.28-12.65L311.28-12.65L311.28-24.86L311.28-24.86Q311.28-26.14 311.58-27.56L311.58-27.56L311.58-27.56Q311.87-28.98 312.50-30.39L312.50-30.39L312.50-30.39Q313.12-31.79 314.11-33.07L314.11-33.07L314.11-33.07Q315.10-34.36 316.50-35.33L316.50-35.33L316.50-35.33Q317.91-36.30 319.74-36.89L319.74-36.89L319.74-36.89Q321.58-37.48 323.90-37.48L323.90-37.48L340.16-37.48L340.16-37.48Q341.44-37.48 342.88-37.18L342.88-37.18L342.88-37.18Q344.32-36.89 345.73-36.26L345.73-36.26L345.73-36.26Q347.13-35.64 348.41-34.65L348.41-34.65L348.41-34.65Q349.70-33.66 350.67-32.26L350.67-32.26L350.67-32.26Q351.64-30.85 352.23-29.02L352.23-29.02L352.23-29.02Q352.82-27.18 352.82-24.86L352.82-24.86ZM402.74-24.86L402.74 0L393.72 0L393.72-24.86L393.72-24.86Q393.72-26.63 392.82-27.54L392.82-27.54L392.82-27.54Q391.92-28.46 390.12-28.46L390.12-28.46L373.86-28.46L373.86-37.48L390.12-37.48L390.12-37.48Q391.40-37.48 392.82-37.18L392.82-37.18L392.82-37.18Q394.24-36.89 395.65-36.26L395.65-36.26L395.65-36.26Q397.05-35.64 398.33-34.65L398.33-34.65L398.33-34.65Q399.62-33.66 400.59-32.26L400.59-32.26L400.59-32.26Q401.56-30.85 402.15-29.02L402.15-29.02L402.15-29.02Q402.74-27.18 402.74-24.86L402.74-24.86ZM370.22-53.32L370.22 0L361.21 0L361.21-53.32L370.22-53.32ZM444.86-37.48L444.86-28.46L429.12-28.46L429.12 0L420.00 0L420.00-28.46L408.28-28.46L408.28-37.48L420.00-37.48L420.00-49.71L429.12-49.71L429.12-37.48L444.86-37.48ZM487.02-12.65L487.02-12.65L487.02-12.65Q487.02-10.33 486.43-8.48L486.43-8.48L486.43-8.48Q485.84-6.62 484.87-5.22L484.87-5.22L484.87-5.22Q483.90-3.81 482.61-2.83L482.61-2.83L482.61-2.83Q481.33-1.84 479.93-1.21L479.93-1.21L479.93-1.21Q478.52-0.59 477.08-0.29L477.08-0.29L477.08-0.29Q475.64 0 474.36 0L474.36 0L449.96 0L449.96-9.01L474.29-9.01L474.29-9.01Q476.13-9.01 477.07-9.95L477.07-9.95L477.07-9.95Q478.00-10.89 478.00-12.65L478.00-12.65L478.00-12.65Q477.83-16.26 474.36-16.26L474.36-16.26L460.39-16.26L460.39-16.26Q457.41-16.26 455.33-17.30L455.33-17.30L455.33-17.30Q453.25-18.34 451.95-19.90L451.95-19.90L451.95-19.90Q450.65-21.46 450.08-23.26L450.08-23.26L450.08-23.26Q449.50-25.06 449.50-26.63L449.50-26.63L449.50-26.63Q449.50-29.64 450.58-31.70L450.58-31.70L450.58-31.70Q451.65-33.77 453.28-35.05L453.28-35.05L453.28-35.05Q454.91-36.33 456.82-36.90L456.82-36.90L456.82-36.90Q458.73-37.48 460.39-37.48L460.39-37.48L482.54-37.48L482.54-28.46L460.46-28.46L460.46-28.46Q459.77-28.46 459.37-28.31L459.37-28.31L459.37-28.31Q458.97-28.15 458.78-27.89L458.78-27.89L458.78-27.89Q458.59-27.63 458.55-27.34L458.55-27.34L458.55-27.34Q458.52-27.04 458.52-26.76L458.52-26.76L458.52-26.76Q458.55-26.21 458.73-25.90L458.73-25.90L458.73-25.90Q458.90-25.58 459.16-25.45L459.16-25.45L459.16-25.45Q459.42-25.31 459.75-25.29L459.75-25.29L459.75-25.29Q460.08-25.27 460.39-25.27L460.39-25.27L474.36-25.27L474.36-25.27Q477.83-25.27 480.26-24.02L480.26-24.02L480.26-24.02Q482.68-22.78 484.17-20.89L484.17-20.89L484.17-20.89Q485.66-19.00 486.34-16.78L486.34-16.78L486.34-16.78Q487.02-14.56 487.02-12.65Z" fill="url(#editing-outline-gradient)"></path></g></g><style>text {
  font-size: 64px;
  font-family: Arial Black;
  dominant-baseline: central;
  text-anchor: middle;
}</style></svg>